# xmcd
#
# Track frame offsets:
#	182
#	15282
#	36707
#	57095
#	84607
#	110995
#	148045
#	163257
#
# Disc length: 2488 seconds
#
# Revision: 1
# Processed by: cddbd v1.4PL0 Copyright (c) Steve Scherf et al.
# Submitted via: EasyCDDAExtractor 5.0.6
#
DISCID=6f09b608
DTITLE=Fizz featuring Crystsal Gayle - When I Dream (The Remixes)
DYEAR=1997
DGENRE=Dance
TTITLE0=When I Dream (Radio Mix)
TTITLE1=When I Dream (Crystal Mix)
TTITLE2=When I Dream (Trip House Dream Mix)
TTITLE3=When I Dream (Leo's Circuit Party Mix)
TTITLE4=When I Dream (Skyjuice Drum and Bass Mix)
TTITLE5=When I Dream (Leo's Hardbeat House Mix)
TTITLE6=When I Dream (Dream Instrumental)
TTITLE7=When I Dream (Leo's Cool Ambient Mix)
EXTD=
EXTT0=
EXTT1=
EXTT2=
EXTT3=
EXTT4=
EXTT5=
EXTT6=
EXTT7=
PLAYORDER=
